{
    "asset" : {
        "generator" : "Khronos glTF Blender I/O v1.7.33",
        "version" : "2.0"
    },
    "scene" : 0,
    "scenes" : [
        {
            "name" : "Scene",
            "nodes" : [
                6,
                7
            ]
        }
    ],
    "nodes" : [
        {
            "name" : "joint_trigger",
            "rotation" : [
                -3.063383768875383e-09,
                0.030017519369721413,
                0.999549388885498,
                7.20179400559573e-08
            ],
            "scale" : [
                1,
                1,
                1.0000032186508179
            ],
            "translation" : [
                7.901461707149338e-09,
                0.04350003972649574,
                0.007000012788921595
            ]
        },
        {
            "name" : "joint_slide",
            "rotation" : [
                -2.127687359632091e-09,
                0.030017584562301636,
                0.999549388885498,
                7.198975993105705e-08
            ],
            "scale" : [
                1,
                1.0000001192092896,
                1.0000032186508179
            ],
            "translation" : [
                2.5294225380889657e-08,
                0.10950011014938354,
                0.04560006409883499
            ]
        },
        {
            "name" : "joint_hammer",
            "rotation" : [
                -2.137106047683801e-09,
                0.030017487704753876,
                0.999549388885498,
                7.199015783498908e-08
            ],
            "scale" : [
                1,
                1,
                1.0000032186508179
            ],
            "translation" : [
                5.847684558801802e-10,
                -0.01516784355044365,
                0.036368224769830704
            ]
        },
        {
            "name" : "joint_gripsafety",
            "rotation" : [
                -3.0696467590018983e-09,
                0.030017483979463577,
                0.999549388885498,
                7.201806795364973e-08
            ],
            "scale" : [
                1,
                0.9999996423721313,
                1.0000030994415283
            ],
            "translation" : [
                -8.024812481188803e-10,
                -0.024764224886894226,
                0.02922358177602291
            ]
        },
        {
            "name" : "joint_bullet",
            "rotation" : [
                -2.134162624400915e-09,
                0.030017536133527756,
                0.999549388885498,
                7.199002993729664e-08
            ],
            "scale" : [
                1,
                0.9999999403953552,
                1.0000030994415283
            ],
            "translation" : [
                8.579262633645612e-09,
                0.027984650805592537,
                0.039450474083423615
            ]
        },
        {
            "children" : [
                0,
                1,
                2,
                3,
                4
            ],
            "name" : "joint_CORE",
            "rotation" : [
                -0.4847661256790161,
                0.5147832036018372,
                0.4847659468650818,
                0.514783501625061
            ],
            "scale" : [
                1,
                0.9999998211860657,
                0.9999998807907104
            ],
            "translation" : [
                0.07330457121133804,
                0.002370730973780155,
                -1.5144003596379517e-15
            ]
        },
        {
            "children" : [
                5
            ],
            "name" : "Armature",
            "rotation" : [
                0.7071068286895752,
                0,
                0,
                0.7071067094802856
            ]
        },
        {
            "mesh" : 0,
            "name" : "pCylinder5",
            "skin" : 0
        }
    ],
    "animations" : [
        {
            "channels" : [
                {
                    "sampler" : 0,
                    "target" : {
                        "node" : 5,
                        "path" : "translation"
                    }
                },
                {
                    "sampler" : 1,
                    "target" : {
                        "node" : 5,
                        "path" : "rotation"
                    }
                },
                {
                    "sampler" : 2,
                    "target" : {
                        "node" : 5,
                        "path" : "scale"
                    }
                },
                {
                    "sampler" : 3,
                    "target" : {
                        "node" : 0,
                        "path" : "translation"
                    }
                },
                {
                    "sampler" : 4,
                    "target" : {
                        "node" : 0,
                        "path" : "rotation"
                    }
                },
                {
                    "sampler" : 5,
                    "target" : {
                        "node" : 0,
                        "path" : "scale"
                    }
                },
                {
                    "sampler" : 6,
                    "target" : {
                        "node" : 1,
                        "path" : "translation"
                    }
                },
                {
                    "sampler" : 7,
                    "target" : {
                        "node" : 1,
                        "path" : "rotation"
                    }
                },
                {
                    "sampler" : 8,
                    "target" : {
                        "node" : 1,
                        "path" : "scale"
                    }
                },
                {
                    "sampler" : 9,
                    "target" : {
                        "node" : 2,
                        "path" : "translation"
                    }
                },
                {
                    "sampler" : 10,
                    "target" : {
                        "node" : 2,
                        "path" : "rotation"
                    }
                },
                {
                    "sampler" : 11,
                    "target" : {
                        "node" : 2,
                        "path" : "scale"
                    }
                },
                {
                    "sampler" : 12,
                    "target" : {
                        "node" : 3,
                        "path" : "translation"
                    }
                },
                {
                    "sampler" : 13,
                    "target" : {
                        "node" : 3,
                        "path" : "rotation"
                    }
                },
                {
                    "sampler" : 14,
                    "target" : {
                        "node" : 3,
                        "path" : "scale"
                    }
                },
                {
                    "sampler" : 15,
                    "target" : {
                        "node" : 4,
                        "path" : "translation"
                    }
                },
                {
                    "sampler" : 16,
                    "target" : {
                        "node" : 4,
                        "path" : "rotation"
                    }
                },
                {
                    "sampler" : 17,
                    "target" : {
                        "node" : 4,
                        "path" : "scale"
                    }
                }
            ],
            "name" : "Fire",
            "samplers" : [
                {
                    "input" : 7,
                    "interpolation" : "LINEAR",
                    "output" : 8
                },
                {
                    "input" : 7,
                    "interpolation" : "LINEAR",
                    "output" : 9
                },
                {
                    "input" : 10,
                    "interpolation" : "LINEAR",
                    "output" : 11
                },
                {
                    "input" : 7,
                    "interpolation" : "LINEAR",
                    "output" : 12
                },
                {
                    "input" : 10,
                    "interpolation" : "LINEAR",
                    "output" : 13
                },
                {
                    "input" : 10,
                    "interpolation" : "LINEAR",
                    "output" : 14
                },
                {
                    "input" : 7,
                    "interpolation" : "LINEAR",
                    "output" : 15
                },
                {
                    "input" : 10,
                    "interpolation" : "LINEAR",
                    "output" : 16
                },
                {
                    "input" : 10,
                    "interpolation" : "LINEAR",
                    "output" : 17
                },
                {
                    "input" : 10,
                    "interpolation" : "LINEAR",
                    "output" : 18
                },
                {
                    "input" : 7,
                    "interpolation" : "LINEAR",
                    "output" : 19
                },
                {
                    "input" : 10,
                    "interpolation" : "LINEAR",
                    "output" : 20
                },
                {
                    "input" : 10,
                    "interpolation" : "LINEAR",
                    "output" : 21
                },
                {
                    "input" : 7,
                    "interpolation" : "LINEAR",
                    "output" : 22
                },
                {
                    "input" : 10,
                    "interpolation" : "LINEAR",
                    "output" : 23
                },
                {
                    "input" : 7,
                    "interpolation" : "LINEAR",
                    "output" : 24
                },
                {
                    "input" : 7,
                    "interpolation" : "LINEAR",
                    "output" : 25
                },
                {
                    "input" : 10,
                    "interpolation" : "LINEAR",
                    "output" : 26
                }
            ]
        }
    ],
    "materials" : [
        {
            "doubleSided" : true,
            "name" : "lambert1",
            "normalTexture" : {
                "index" : 0,
                "scale" : 0
            },
            "pbrMetallicRoughness" : {
                "baseColorTexture" : {
                    "index" : 1
                },
                "metallicRoughnessTexture" : {
                    "index" : 2
                }
            }
        }
    ],
    "meshes" : [
        {
            "name" : "Mesh",
            "primitives" : [
                {
                    "attributes" : {
                        "POSITION" : 0,
                        "NORMAL" : 1,
                        "TEXCOORD_0" : 2,
                        "JOINTS_0" : 3,
                        "WEIGHTS_0" : 4
                    },
                    "indices" : 5,
                    "material" : 0
                }
            ]
        }
    ],
    "textures" : [
        {
            "sampler" : 0,
            "source" : 0
        },
        {
            "sampler" : 0,
            "source" : 1
        },
        {
            "sampler" : 0,
            "source" : 2
        }
    ],
    "images" : [
        {
            "mimeType" : "image/png",
            "name" : "m1911_normal",
            "uri" : "m1911_normal.png"
        },
        {
            "mimeType" : "image/png",
            "name" : "m1911_color",
            "uri" : "m1911_color.png"
        },
        {
            "mimeType" : "image/png",
            "name" : "m1911_metalness-m1911_roughness",
            "uri" : "m1911_metalness-m1911_roughness.png"
        }
    ],
    "skins" : [
        {
            "inverseBindMatrices" : 6,
            "joints" : [
                5,
                0,
                1,
                2,
                3,
                4
            ],
            "name" : "Armature"
        }
    ],
    "accessors" : [
        {
            "bufferView" : 0,
            "componentType" : 5126,
            "count" : 4185,
            "max" : [
                0.12030238658189774,
                0.015894928947091103,
                0.09956808388233185
            ],
            "min" : [
                -0.3414258062839508,
                -0.018886372447013855,
                -0.07631991803646088
            ],
            "type" : "VEC3"
        },
        {
            "bufferView" : 1,
            "componentType" : 5126,
            "count" : 4185,
            "type" : "VEC3"
        },
        {
            "bufferView" : 2,
            "componentType" : 5126,
            "count" : 4185,
            "type" : "VEC2"
        },
        {
            "bufferView" : 3,
            "componentType" : 5121,
            "count" : 4185,
            "type" : "VEC4"
        },
        {
            "bufferView" : 4,
            "componentType" : 5126,
            "count" : 4185,
            "type" : "VEC4"
        },
        {
            "bufferView" : 5,
            "componentType" : 5123,
            "count" : 11571,
            "type" : "SCALAR"
        },
        {
            "bufferView" : 6,
            "componentType" : 5126,
            "count" : 6,
            "type" : "MAT4"
        },
        {
            "bufferView" : 7,
            "componentType" : 5126,
            "count" : 401,
            "max" : [
                6.683333333333334
            ],
            "min" : [
                0.016666666666666666
            ],
            "type" : "SCALAR"
        },
        {
            "bufferView" : 8,
            "componentType" : 5126,
            "count" : 401,
            "type" : "VEC3"
        },
        {
            "bufferView" : 9,
            "componentType" : 5126,
            "count" : 401,
            "type" : "VEC4"
        },
        {
            "bufferView" : 10,
            "componentType" : 5126,
            "count" : 2,
            "max" : [
                6.683333333333334
            ],
            "min" : [
                0.016666666666666666
            ],
            "type" : "SCALAR"
        },
        {
            "bufferView" : 11,
            "componentType" : 5126,
            "count" : 2,
            "type" : "VEC3"
        },
        {
            "bufferView" : 12,
            "componentType" : 5126,
            "count" : 401,
            "type" : "VEC3"
        },
        {
            "bufferView" : 13,
            "componentType" : 5126,
            "count" : 2,
            "type" : "VEC4"
        },
        {
            "bufferView" : 14,
            "componentType" : 5126,
            "count" : 2,
            "type" : "VEC3"
        },
        {
            "bufferView" : 15,
            "componentType" : 5126,
            "count" : 401,
            "type" : "VEC3"
        },
        {
            "bufferView" : 16,
            "componentType" : 5126,
            "count" : 2,
            "type" : "VEC4"
        },
        {
            "bufferView" : 17,
            "componentType" : 5126,
            "count" : 2,
            "type" : "VEC3"
        },
        {
            "bufferView" : 18,
            "componentType" : 5126,
            "count" : 2,
            "type" : "VEC3"
        },
        {
            "bufferView" : 19,
            "componentType" : 5126,
            "count" : 401,
            "type" : "VEC4"
        },
        {
            "bufferView" : 20,
            "componentType" : 5126,
            "count" : 2,
            "type" : "VEC3"
        },
        {
            "bufferView" : 21,
            "componentType" : 5126,
            "count" : 2,
            "type" : "VEC3"
        },
        {
            "bufferView" : 22,
            "componentType" : 5126,
            "count" : 401,
            "type" : "VEC4"
        },
        {
            "bufferView" : 23,
            "componentType" : 5126,
            "count" : 2,
            "type" : "VEC3"
        },
        {
            "bufferView" : 24,
            "componentType" : 5126,
            "count" : 401,
            "type" : "VEC3"
        },
        {
            "bufferView" : 25,
            "componentType" : 5126,
            "count" : 401,
            "type" : "VEC4"
        },
        {
            "bufferView" : 26,
            "componentType" : 5126,
            "count" : 2,
            "type" : "VEC3"
        }
    ],
    "bufferViews" : [
        {
            "buffer" : 0,
            "byteLength" : 50220,
            "byteOffset" : 0
        },
        {
            "buffer" : 0,
            "byteLength" : 50220,
            "byteOffset" : 50220
        },
        {
            "buffer" : 0,
            "byteLength" : 33480,
            "byteOffset" : 100440
        },
        {
            "buffer" : 0,
            "byteLength" : 16740,
            "byteOffset" : 133920
        },
        {
            "buffer" : 0,
            "byteLength" : 66960,
            "byteOffset" : 150660
        },
        {
            "buffer" : 0,
            "byteLength" : 23142,
            "byteOffset" : 217620
        },
        {
            "buffer" : 0,
            "byteLength" : 384,
            "byteOffset" : 240764
        },
        {
            "buffer" : 0,
            "byteLength" : 1604,
            "byteOffset" : 241148
        },
        {
            "buffer" : 0,
            "byteLength" : 4812,
            "byteOffset" : 242752
        },
        {
            "buffer" : 0,
            "byteLength" : 6416,
            "byteOffset" : 247564
        },
        {
            "buffer" : 0,
            "byteLength" : 8,
            "byteOffset" : 253980
        },
        {
            "buffer" : 0,
            "byteLength" : 24,
            "byteOffset" : 253988
        },
        {
            "buffer" : 0,
            "byteLength" : 4812,
            "byteOffset" : 254012
        },
        {
            "buffer" : 0,
            "byteLength" : 32,
            "byteOffset" : 258824
        },
        {
            "buffer" : 0,
            "byteLength" : 24,
            "byteOffset" : 258856
        },
        {
            "buffer" : 0,
            "byteLength" : 4812,
            "byteOffset" : 258880
        },
        {
            "buffer" : 0,
            "byteLength" : 32,
            "byteOffset" : 263692
        },
        {
            "buffer" : 0,
            "byteLength" : 24,
            "byteOffset" : 263724
        },
        {
            "buffer" : 0,
            "byteLength" : 24,
            "byteOffset" : 263748
        },
        {
            "buffer" : 0,
            "byteLength" : 6416,
            "byteOffset" : 263772
        },
        {
            "buffer" : 0,
            "byteLength" : 24,
            "byteOffset" : 270188
        },
        {
            "buffer" : 0,
            "byteLength" : 24,
            "byteOffset" : 270212
        },
        {
            "buffer" : 0,
            "byteLength" : 6416,
            "byteOffset" : 270236
        },
        {
            "buffer" : 0,
            "byteLength" : 24,
            "byteOffset" : 276652
        },
        {
            "buffer" : 0,
            "byteLength" : 4812,
            "byteOffset" : 276676
        },
        {
            "buffer" : 0,
            "byteLength" : 6416,
            "byteOffset" : 281488
        },
        {
            "buffer" : 0,
            "byteLength" : 24,
            "byteOffset" : 287904
        }
    ],
    "samplers" : [
        {
            "magFilter" : 9729,
            "minFilter" : 9987
        }
    ],
    "buffers" : [
        {
            "byteLength" : 287928,
            "uri" : "m1911-shoot.bin"
        }
    ]
}
